<svg id="visual" viewBox="0 0 900 600" width="900" height="600" xmlns="http://www.w3.org/2000/svg" xmlns:xlink="http://www.w3.org/1999/xlink" version="1.1"><rect x="0" y="0" width="900" height="600" fill="#181718"></rect><path d="M0 360L15 370.5C30 381 60 402 90 406.8C120 411.7 150 400.3 180 400.7C210 401 240 413 270 409.5C300 406 330 387 360 373.3C390 359.7 420 351.3 450 361.5C480 371.7 510 400.3 540 402.7C570 405 600 381 630 375.8C660 370.7 690 384.3 720 396.5C750 408.7 780 419.3 810 411.7C840 404 870 378 885 365L900 352L900 601L885 601C870 601 840 601 810 601C780 601 750 601 720 601C690 601 660 601 630 601C600 601 570 601 540 601C510 601 480 601 450 601C420 601 390 601 360 601C330 601 300 601 270 601C240 601 210 601 180 601C150 601 120 601 90 601C60 601 30 601 15 601L0 601Z" fill="#fa7268"></path><path d="M0 439L15 441.7C30 444.3 60 449.7 90 453.5C120 457.3 150 459.7 180 460.2C210 460.7 240 459.3 270 445.7C300 432 330 406 360 398.7C390 391.3 420 402.7 450 401.8C480 401 510 388 540 386.5C570 385 600 395 630 408.3C660 421.7 690 438.3 720 445.3C750 452.3 780 449.7 810 449.2C840 448.7 870 450.3 885 451.2L900 452L900 601L885 601C870 601 840 601 810 601C780 601 750 601 720 601C690 601 660 601 630 601C600 601 570 601 540 601C510 601 480 601 450 601C420 601 390 601 360 601C330 601 300 601 270 601C240 601 210 601 180 601C150 601 120 601 90 601C60 601 30 601 15 601L0 601Z" fill="#f16367"></path><path d="M0 415L15 423.7C30 432.3 60 449.7 90 461C120 472.3 150 477.7 180 470.8C210 464 240 445 270 437.3C300 429.7 330 433.3 360 444C390 454.7 420 472.3 450 471C480 469.7 510 449.3 540 439.5C570 429.7 600 430.3 630 435.3C660 440.3 690 449.7 720 458.3C750 467 780 475 810 477.2C840 479.3 870 475.7 885 473.8L900 472L900 601L885 601C870 601 840 601 810 601C780 601 750 601 720 601C690 601 660 601 630 601C600 601 570 601 540 601C510 601 480 601 450 601C420 601 390 601 360 601C330 601 300 601 270 601C240 601 210 601 180 601C150 601 120 601 90 601C60 601 30 601 15 601L0 601Z" fill="#e85467"></path><path d="M0 520L15 509.3C30 498.7 60 477.3 90 474.5C120 471.7 150 487.3 180 493.7C210 500 240 497 270 499.5C300 502 330 510 360 511.3C390 512.7 420 507.3 450 502.2C480 497 510 492 540 486.5C570 481 600 475 630 477.8C660 480.7 690 492.3 720 498C750 503.7 780 503.3 810 501.7C840 500 870 497 885 495.5L900 494L900 601L885 601C870 601 840 601 810 601C780 601 750 601 720 601C690 601 660 601 630 601C600 601 570 601 540 601C510 601 480 601 450 601C420 601 390 601 360 601C330 601 300 601 270 601C240 601 210 601 180 601C150 601 120 601 90 601C60 601 30 601 15 601L0 601Z" fill="#de4467"></path><path d="M0 535L15 531.7C30 528.3 60 521.7 90 521.7C120 521.7 150 528.3 180 531.7C210 535 240 535 270 528.5C300 522 330 509 360 505.5C390 502 420 508 450 508.7C480 509.3 510 504.7 540 510.5C570 516.3 600 532.7 630 533.2C660 533.7 690 518.3 720 515.3C750 512.3 780 521.7 810 528C840 534.3 870 537.7 885 539.3L900 541L900 601L885 601C870 601 840 601 810 601C780 601 750 601 720 601C690 601 660 601 630 601C600 601 570 601 540 601C510 601 480 601 450 601C420 601 390 601 360 601C330 601 300 601 270 601C240 601 210 601 180 601C150 601 120 601 90 601C60 601 30 601 15 601L0 601Z" fill="#d23467"></path><path d="M0 573L15 570.7C30 568.3 60 563.7 90 558.5C120 553.3 150 547.7 180 543C210 538.3 240 534.7 270 539.3C300 544 330 557 360 562.5C390 568 420 566 450 564.2C480 562.3 510 560.7 540 557C570 553.3 600 547.7 630 543.3C660 539 690 536 720 538C750 540 780 547 810 554.2C840 561.3 870 568.7 885 572.3L900 576L900 601L885 601C870 601 840 601 810 601C780 601 750 601 720 601C690 601 660 601 630 601C600 601 570 601 540 601C510 601 480 601 450 601C420 601 390 601 360 601C330 601 300 601 270 601C240 601 210 601 180 601C150 601 120 601 90 601C60 601 30 601 15 601L0 601Z" fill="#c62368"></path></svg>