<svg id="visual" viewBox="0 0 900 600" width="900" height="600" xmlns="http://www.w3.org/2000/svg" xmlns:xlink="http://www.w3.org/1999/xlink" version="1.1"><path d="M0 37L15 47C30 57 60 77 90 85C120 93 150 89 180 86C210 83 240 81 270 75C300 69 330 59 360 65C390 71 420 93 450 101C480 109 510 103 540 91C570 79 600 61 630 55C660 49 690 55 720 56C750 57 780 53 810 51C840 49 870 49 885 49L900 49L900 0L885 0C870 0 840 0 810 0C780 0 750 0 720 0C690 0 660 0 630 0C600 0 570 0 540 0C510 0 480 0 450 0C420 0 390 0 360 0C330 0 300 0 270 0C240 0 210 0 180 0C150 0 120 0 90 0C60 0 30 0 15 0L0 0Z" fill="#c62368"></path><path d="M0 175L15 191C30 207 60 239 90 240C120 241 150 211 180 214C210 217 240 253 270 262C300 271 330 253 360 243C390 233 420 231 450 233C480 235 510 241 540 252C570 263 600 279 630 279C660 279 690 263 720 252C750 241 780 235 810 236C840 237 870 245 885 249L900 253L900 47L885 47C870 47 840 47 810 49C780 51 750 55 720 54C690 53 660 47 630 53C600 59 570 77 540 89C510 101 480 107 450 99C420 91 390 69 360 63C330 57 300 67 270 73C240 79 210 81 180 84C150 87 120 91 90 83C60 75 30 55 15 45L0 35Z" fill="#b72d80"></path><path d="M0 235L15 250C30 265 60 295 90 298C120 301 150 277 180 291C210 305 240 357 270 364C300 371 330 333 360 315C390 297 420 299 450 311C480 323 510 345 540 354C570 363 600 359 630 359C660 359 690 363 720 360C750 357 780 347 810 346C840 345 870 353 885 357L900 361L900 251L885 247C870 243 840 235 810 234C780 233 750 239 720 250C690 261 660 277 630 277C600 277 570 261 540 250C510 239 480 233 450 231C420 229 390 231 360 241C330 251 300 269 270 260C240 251 210 215 180 212C150 209 120 239 90 238C60 237 30 205 15 189L0 173Z" fill="#a03b95"></path><path d="M0 313L15 327C30 341 60 369 90 367C120 365 150 333 180 341C210 349 240 397 270 406C300 415 330 385 360 370C390 355 420 355 450 372C480 389 510 423 540 429C570 435 600 413 630 413C660 413 690 435 720 431C750 427 780 397 810 394C840 391 870 415 885 427L900 439L900 359L885 355C870 351 840 343 810 344C780 345 750 355 720 358C690 361 660 357 630 357C600 357 570 361 540 352C510 343 480 321 450 309C420 297 390 295 360 313C330 331 300 369 270 362C240 355 210 303 180 289C150 275 120 299 90 296C60 293 30 263 15 248L0 233Z" fill="#8248a4"></path><path d="M0 541L15 542C30 543 60 545 90 543C120 541 150 535 180 535C210 535 240 541 270 540C300 539 330 531 360 529C390 527 420 531 450 533C480 535 510 535 540 538C570 541 600 547 630 548C660 549 690 545 720 548C750 551 780 561 810 557C840 553 870 535 885 526L900 517L900 437L885 425C870 413 840 389 810 392C780 395 750 425 720 429C690 433 660 411 630 411C600 411 570 433 540 427C510 421 480 387 450 370C420 353 390 353 360 368C330 383 300 413 270 404C240 395 210 347 180 339C150 331 120 363 90 365C60 367 30 339 15 325L0 311Z" fill="#5c52ad"></path><path d="M0 601L15 601C30 601 60 601 90 601C120 601 150 601 180 601C210 601 240 601 270 601C300 601 330 601 360 601C390 601 420 601 450 601C480 601 510 601 540 601C570 601 600 601 630 601C660 601 690 601 720 601C750 601 780 601 810 601C840 601 870 601 885 601L900 601L900 515L885 524C870 533 840 551 810 555C780 559 750 549 720 546C690 543 660 547 630 546C600 545 570 539 540 536C510 533 480 533 450 531C420 529 390 525 360 527C330 529 300 537 270 538C240 539 210 533 180 533C150 533 120 539 90 541C60 543 30 541 15 540L0 539Z" fill="#1e5ab0"></path></svg>